#!OML:ASF H:\ManfredETheater\Project 1\Capture day 1\Session 1\subject.ASF
:FULLY-SPECIFIED
:DEGREES
308
root 1.78836 16.265 18.2667 -160.365 -6.90522 183.403
lowerback 11.339 1.13273 5.94362
upperback 0.0749729 2.24332 3.485
thorax -6.20175 0.856281 -0.0291502
lowerneck -16.8677 -4.31437 -5.21761
upperneck 4.60664 -5.00517 2.27939
head 4.25572 -2.49525 1.1092
rclavicle -4.92986e-014 -2.46493e-014
rhumerus -32.4764 5.56636 -85.6875
rradius 63.8811
rwrist -9.56216
rhand -22.5238 -11.7812
rfingers 7.12502
rthumb 3.90298 -41.7252
lclavicle -4.92986e-014 -2.46493e-014
lhumerus -42.0364 -3.6887 91.5139
lradius 57.1389
lwrist 0.328502
lhand -16.8916 2.99225
lfingers 7.12502
lthumb 9.33998 32.7653
rfemur -5.04498 3.33812 30.5513
rtibia 23.3098
rfoot -32.3593 -15.1916
rtoes 3.77329
lfemur -67.3013 -2.03761 -15.3994
ltibia 59.9667
lfoot -16.5068 -4.58971
ltoes -10.9555
309
root 1.78231 16.1912 18.0454 -160.163 -6.8464 183.425
lowerback 11.4324 1.23399 5.9089
upperback 0.13498 2.37471 3.44298
thorax -6.18441 0.921938 -0.0770117
lowerneck -16.8284 -4.38888 -5.30571
upperneck 4.19995 -5.112 2.39674
head 4.13194 -2.54822 1.15457
rclavicle 1.31198e-014 -5.56597e-015
rhumerus -32.421 5.91533 -85.8624
rradius 66.1817
rwrist -9.82212
rhand -23.0147 -11.5026
rfingers 7.12502
rthumb 3.42895 -41.4548
lclavicle 1.31198e-014 -5.56597e-015
lhumerus -42.6855 -3.95738 91.5575
lradius 58.2825
lwrist 0.704727
lhand -17.1367 3.0192
lfingers 7.12502
lthumb 9.10343 32.8027
rfemur -4.15259 3.34695 30.6913
rtibia 22.8622
rfoot -32.5746 -15.375
rtoes 2.94624
lfemur -68.0519 -2.06344 -15.357
ltibia 61.2059
lfoot -16.4259 -4.82525
ltoes -10.8227
310
root 1.77527 16.116 17.8203 -159.943 -6.73396 183.426
lowerback 11.5237 1.34385 5.83564
upperback 0.182039 2.5144 3.38345
thorax -6.18007 0.993129 -0.12349
lowerneck -16.7733 -4.45298 -5.38156
upperneck 3.7991 -5.20807 2.51342
head 4.00727 -2.59608 1.19917
rclavicle 1.31198e-014 8.74653e-015
rhumerus -32.4066 6.26147 -86.0588
rradius 68.6198
rwrist -10.0649
rhand -23.5064 -11.1038
rfingers 7.12502
rthumb 2.95401 -41.0631
lclavicle 1.31198e-014 8.74653e-015
lhumerus -43.4087 -4.25823 91.608
lradius 59.5642
lwrist 1.07466
lhand -17.3913 3.06449
lfingers 7.12502
lthumb 8.85777 32.8586
rfemur -3.28557 3.35191 30.7915
rtibia 22.4688
rfoot -32.774 -15.5388
rtoes 2.06543
lfemur -68.7535 -2.06489 -15.3302
ltibia 62.5952
lfoot -16.3119 -5.01766
ltoes -10.6338
311
root 1.76726 16.0399 17.5912 -159.705 -6.56599 183.41
lowerback 11.6149 1.46211 5.72447
upperback 0.214217 2.66243 3.30553
thorax -6.1921 1.06975 -0.169983
lowerneck -16.7049 -4.50923 -5.44566
upperneck 3.40771 -5.29648 2.63136
head 3.88338 -2.64019 1.24332
rclavicle -9.54166e-015 -5.32743e-014
rhumerus -32.4334 6.60481 -86.2814
rradius 71.1815
rwrist -10.2993
rhand -23.9895 -10.5962
rfingers 7.12502
rthumb 2.4875 -40.5614
lclavicle -9.54166e-015 -5.32743e-014
lhumerus -44.1978 -4.58048 91.6613
lradius 60.9678
lwrist 1.45368
lhand -17.6336 3.10954
lfingers 7.12502
lthumb 8.62393 32.9134
rfemur -2.44813 3.33998 30.8477
rtibia 22.1357
rfoot -32.9482 -15.667
rtoes 1.09203
lfemur -69.3921 -2.0308 -15.3267
ltibia 64.1083
lfoot -16.1829 -5.18919
ltoes -10.2951
312
root 1.75819 15.9637 17.3579 -159.446 -6.33624 183.373
lowerback 11.7045 1.58855 5.57142
upperback 0.22975 2.81789 3.20806
thorax -6.22173 1.1515 -0.215429
lowerneck -16.6259 -4.55448 -5.49854
upperneck 3.03093 -5.37258 2.7522
head 3.76216 -2.67808 1.28787
rclavicle -3.61788e-014 -2.62396e-014
rhumerus -32.4941 6.94972 -86.5332
rradius 73.836
rwrist -10.536
rhand -24.4349 -10.0199
rfingers 7.12502
rthumb 2.05737 -39.9897
lclavicle -3.61788e-014 -2.62396e-014
lhumerus -45.0422 -4.90957 91.7144
lradius 62.4692
lwrist 1.8731
lhand -17.8551 3.1438
lfingers 7.12502
lthumb 8.41013 32.9564
rfemur -1.6455 3.31858 30.8482
rtibia 21.8675
rfoot -33.0864 -15.7376
rtoes 0.0251862
lfemur -69.9525 -1.95329 -15.3557
ltibia 65.7149
lfoot -16.0932 -5.35891
ltoes -9.79963
313
root 1.74802 15.8879 17.12 -159.164 -6.04638 183.318
lowerback 11.7869 1.72209 5.37779
upperback 0.23093 2.97853 3.09057
thorax -6.26357 1.23737 -0.260577
lowerneck -16.5532 -4.58756 -5.53536
upperneck 2.67888 -5.43446 2.871
head 3.64888 -2.70892 1.33022
rclavicle 6.87795e-014 3.97569e-014
rhumerus -32.5726 7.2939 -86.815
rradius 76.5495
rwrist -10.7862
rhand -24.8466 -9.41793
rfingers 7.12502
rthumb 1.65974 -39.3912
lclavicle 6.87795e-014 3.97569e-014
lhumerus -45.9266 -5.2335 91.7631
lradius 64.048
lwrist 2.35515
lhand -18.0345 3.15182
lfingers 7.12502
lthumb 8.23702 32.9712
rfemur -0.878638 3.29426 30.7878
rtibia 21.6634
rfoot -33.1754 -15.7442
rtoes -1.15389
lfemur -70.4226 -1.82864 -15.424
ltibia 67.38
lfoot -16.111 -5.54827
ltoes -9.14665
314
root 1.73664 15.8134 16.877 -158.859 -5.70245 183.242
lowerback 11.8612 1.85946 5.14311
upperback 0.216549 3.13976 2.95253
thorax -6.31882 1.32511 -0.304968
lowerneck -16.4904 -4.6086 -5.55924
upperneck 2.35448 -5.48154 2.99084
head 3.54511 -2.7322 1.37169
rclavicle -8.74653e-015 1.11319e-014
rhumerus -32.6596 7.6437 -87.1257
rradius 79.2805
rwrist -11.0467
rhand -25.234 -8.72016
rfingers 7.12502
rthumb 1.28553 -38.696
lclavicle -8.74653e-015 1.11319e-014
lhumerus -46.8345 -5.53853 91.8054
lradius 65.6708
lwrist 2.9106
lhand -18.1737 3.12071
lfingers 7.12502
lthumb 8.10265 32.9454
rfemur -0.150293 3.27674 30.6571
rtibia 21.5226
rfoot -33.1896 -15.678
rtoes -2.47401
lfemur -70.7921 -1.66055 -15.5414
ltibia 69.0612
lfoot -16.2957 -5.7642
ltoes -8.34522
315
root 1.72401 15.7409 16.6285 -158.529 -5.3134 183.134
lowerback 11.9232 1.99552 4.86368
upperback 0.186992 3.29362 2.79217
thorax -6.38523 1.4111 -0.346964
lowerneck -16.4408 -4.61803 -5.57126
upperneck 2.06141 -5.51409 3.11545
head 3.45251 -2.74777 1.41343
rclavicle -1.31198e-014 1.82882e-014
rhumerus -32.7464 8.0022 -87.4678
rradius 81.9833
rwrist -11.3346
rhand -25.603 -7.93105
rfingers 7.12502
rthumb 0.929219 -37.9088
lclavicle -1.31198e-014 1.82882e-014
lhumerus -47.7538 -5.81219 91.8383
lradius 67.313
lwrist 3.54058
lhand -18.2711 3.05031
lfingers 7.12502
lthumb 8.00867 32.8786
rfemur 0.541818 3.26699 30.4451
rtibia 21.4448
rfoot -33.1135 -15.5233
rtoes -3.91367
lfemur -71.0519 -1.45789 -15.7204
ltibia 70.7146
lfoot -16.6874 -5.9901
ltoes -7.43668
316
root 1.71023 15.6713 16.3743 -158.173 -4.88788 182.997
lowerback 11.9665 2.12636 4.54145
upperback 0.144701 3.43412 2.61024
thorax -6.45676 1.49244 -0.385493
lowerneck -16.4131 -4.61564 -5.56712
upperneck 1.80032 -5.53217 3.24112
head 3.37235 -2.75583 1.45337
rclavicle 2.74323e-014 -8.74653e-015
rhumerus -32.8206 8.3761 -87.8412
rradius 84.6192
rwrist -11.6364
rhand -26.009 -7.02823
rfingers 7.12502
rthumb 0.537064 -37.0073
lclavicle 2.74323e-014 -8.74653e-015
lhumerus -48.664 -6.04339 91.8575
lradius 68.9424
lwrist 4.22286
lhand -18.3401 2.92223
lfingers 7.12502
lthumb 7.94214 32.753
rfemur 1.19007 3.27883 30.152
rtibia 21.4286
rfoot -32.9286 -15.2739
rtoes -5.44302
lfemur -71.2032 -1.22744 -15.9624
ltibia 72.2982
lfoot -17.2894 -6.19313
ltoes -6.51059
317
root 1.69554 15.6054 16.1142 -157.791 -4.44027 182.821
lowerback 11.9939 2.24684 4.17395
upperback 0.0896471 3.55396 2.40706
thorax -6.53563 1.56555 -0.417609
lowerneck -16.4092 -4.60342 -5.55273
upperneck 1.57186 -5.53761 3.3743
head 3.30546 -2.75697 1.4942
rclavicle -8.74653e-015 -3.81667e-014
rhumerus -32.8843 8.76357 -88.2437
rradius 87.1505
rwrist -11.937
rhand -26.3828 -6.04254
rfingers 7.12502
rthumb 0.176052 -36.0222
lclavicle -8.74653e-015 -3.81667e-014
lhumerus -49.5509 -6.2255 91.8635
lradius 70.533
lwrist 4.91669
lhand -18.3861 2.77088
lfingers 7.12502
lthumb 7.89767 32.6034
rfemur 1.7869 3.31722 29.7769
rtibia 21.4827
rfoot -32.6207 -14.9377
rtoes -7.04031
lfemur -71.2491 -0.983855 -16.2732
ltibia 73.78
lfoot -18.0819 -6.35702
ltoes -5.64654
318
root 1.68005 15.5438 15.8481 -157.395 -3.99803 182.604
lowerback 12.0135 2.34588 3.77182
upperback 0.0229913 3.63965 2.18341
thorax -6.62487 1.62328 -0.446325
lowerneck -16.4216 -4.58044 -5.52524
upperneck 1.37143 -5.53014 3.51496
head 3.24915 -2.75103 1.53565
rclavicle 3.93594e-014 3.65764e-014
rhumerus -32.9448 9.16744 -88.68
rradius 89.5442
rwrist -12.2158
rhand -26.7399 -4.97018
rfingers 7.12502
rthumb -0.168893 -34.9499
lclavicle 3.93594e-014 3.65764e-014
lhumerus -50.4015 -6.35548 91.8529
lradius 72.055
lwrist 5.57017
lhand -18.4208 2.5887
lfingers 7.12502
lthumb 7.86419 32.4224
rfemur 2.33046 3.37458 29.3311
rtibia 21.6224
rfoot -32.1821 -14.5279
rtoes -8.68227
lfemur -71.1899 -0.750629 -16.6507
ltibia 75.1396
lfoot -19.02 -6.46868
ltoes -4.91232
319
root 1.66444 15.4875 15.5765 -156.977 -3.57386 182.344
lowerback 12.0216 2.4212 3.33158
upperback -0.0555787 3.68705 1.94361
thorax -6.72312 1.66369 -0.464151
lowerneck -16.2708 -4.54748 -5.51634
upperneck 0.786161 -5.50952 3.54932
head 3.44351 -2.75305 1.72487
rclavicle 7.43455e-014 2.14687e-014
rhumerus -33.0051 9.5802 -89.1423
rradius 91.774
rwrist -12.4458
rhand -27.0441 -3.84894
rfingers 7.12502
rthumb -0.462725 -33.8282
lclavicle 7.43455e-014 2.14687e-014
lhumerus -51.195 -6.43359 91.8302
lradius 73.4819
lwrist 6.12957
lhand -18.4555 2.38776
lfingers 7.12502
lthumb 7.83075 32.2227
rfemur 2.78945 3.44272 28.8228
rtibia 21.8748
rfoot -31.6043 -14.0442
rtoes -10.3325
lfemur -71.0492 -0.534579 -17.0898
ltibia 76.3687
lfoot -20.042 -6.52439
ltoes -4.37434
320
root 1.64868 15.4365 15.2995 -156.55 -3.18863 182.05
lowerback 12.0289 2.46808 2.87426
upperback -0.141619 3.69221 1.69348
thorax -6.83065 1.68382 -0.476232
lowerneck -16.3039 -4.51352 -5.47693
upperneck 0.619313 -5.48931 3.7079
head 3.39467 -2.74031 1.77337
rclavicle 3.97569e-015 5.88403e-014
rhumerus -33.0785 9.99285 -89.6241
rradius 93.8175
rwrist -12.5936
rhand -27.2838 -2.68616
rfingers 7.12502
rthumb -0.694167 -32.6648
lclavicle 3.97569e-015 5.88403e-014
lhumerus -51.9133 -6.47039 91.8033
lradius 74.7914
lwrist 6.54968
lhand -18.498 2.17643
lfingers 7.12502
lthumb 7.78969 32.0129
rfemur 3.14975 3.5088 28.2754
rtibia 22.2767
rfoot -30.8741 -13.4944
rtoes -11.9206
lfemur -70.8281 -0.350619 -17.5702
ltibia 77.4702
lfoot -21.093 -6.53803
ltoes -4.0906
